<?xml version="1.0" encoding="UTF-8"?>
<svg version="1.1" xmlns="http://www.w3.org/2000/svg" width="512" height="512">
<path d="M0 0 C0.82668686 -0.01168213 1.65337372 -0.02336426 2.50511169 -0.03540039 C5.23163524 -0.06892931 7.95761475 -0.07971751 10.68432617 -0.08740234 C12.58615813 -0.09958783 14.48798818 -0.112074 16.38981628 -0.12484741 C20.37515566 -0.14731026 24.36030401 -0.15687606 28.34570312 -0.15917969 C33.44040592 -0.1644597 38.53350938 -0.21577715 43.62778187 -0.27869606 C47.55618984 -0.31965898 51.48421466 -0.32882261 55.412817 -0.32929611 C57.29025731 -0.33466623 59.16770244 -0.35146959 61.04493141 -0.38014603 C77.54270015 -0.61113847 77.54270015 -0.61113847 82.71972656 3.59423828 C85.49442935 6.76085733 87.08805956 9.87709339 88.20385742 13.95947266 C88.55391846 15.1844043 88.90397949 16.40933594 89.26464844 17.67138672 C89.60697408 18.97298421 89.94867809 20.27474534 90.28979492 21.57666016 C90.66214126 22.91559429 91.03708548 24.25380855 91.41455078 25.59130859 C92.1660568 28.26861321 92.90267671 30.94928413 93.6262207 33.63427734 C94.57137675 37.10829239 95.55583578 40.56673239 96.56713867 44.02197266 C100.66479492 58.03413999 100.66479492 58.03413999 100.66479492 60.45166016 C101.47716492 60.45014127 102.28953491 60.44862239 103.12652218 60.44705749 C151.25052123 60.35758818 199.37451147 60.28893568 247.49857701 60.24739884 C253.2740352 60.24239588 259.04949323 60.2372186 264.82495117 60.23193359 C265.974764 60.23088435 267.12457682 60.22983511 268.30923246 60.22875407 C286.93850122 60.21133834 305.56772071 60.17979421 324.19696023 60.14304897 C343.30549582 60.10567207 362.41400557 60.08343119 381.52257621 60.07530618 C393.31812512 60.06981166 405.11353479 60.05244393 416.90904085 60.01999429 C424.99242821 59.99888653 433.07574335 59.99245163 441.15915628 59.99765465 C445.82620926 60.00022225 450.49301856 59.99622526 455.16002846 59.97483826 C459.43124832 59.95540752 463.70206009 59.95436739 467.97329853 59.96806458 C469.51983663 59.96975805 471.06639994 59.96465426 472.61288823 59.95212743 C474.71369903 59.93609764 476.81303254 59.94470977 478.91382027 59.95946884 C480.66471071 59.95719052 480.66471071 59.95719052 482.45097268 59.95486617 C487.3505418 60.71224361 490.53963567 62.96500022 493.50710583 66.88588428 C498.30671425 77.52321302 492.35975878 91.1342819 489.29638672 101.61303711 C488.71863036 103.63259448 488.14226188 105.65254933 487.56716919 107.67286682 C486.00907437 113.13120414 484.43139034 118.5836987 482.84977317 124.03525949 C481.19469468 129.75168001 479.5570081 135.4730805 477.91719055 141.19389343 C475.16272565 150.79403383 472.39646763 160.39070942 469.62207031 169.98510742 C466.06307913 182.29297405 462.52302269 194.6062009 458.98912334 206.9212923 C455.94657487 217.52377397 452.89602775 228.12395129 449.84384561 238.72366309 C448.86474307 242.12490761 447.88660579 245.52642872 446.90854454 248.92797279 C445.37088942 254.27355801 443.82826678 259.61768627 442.28180313 264.9607296 C441.71549121 266.91983018 441.15070249 268.87937182 440.58756065 270.83938599 C439.81775986 273.51752981 439.04232994 276.19398075 438.26542664 278.87007141 C438.04459921 279.64303143 437.82377179 280.41599146 437.59625262 281.21237451 C435.4919871 288.41700903 433.50390259 294.36115604 427.66479492 299.45166016 C425.30227533 300.63291995 423.88419253 300.58168088 421.24886131 300.59032536 C420.3148126 300.5957998 419.38076388 300.60127424 418.41841066 300.60691458 C417.38535315 300.60789269 416.35229563 300.60887079 415.28793335 300.60987854 C413.64990735 300.61728551 413.64990735 300.61728551 411.97878993 300.62484211 C408.29518773 300.64028184 404.61160304 300.6485952 400.92797852 300.65698242 C398.2971735 300.66655586 395.66637005 300.67656562 393.03556824 300.6869812 C387.35906074 300.70876272 381.6825509 300.72690106 376.00602341 300.74258614 C367.79865244 300.76526953 359.59130741 300.79341446 351.38395841 300.82290541 C338.06905338 300.87060012 324.75413775 300.9138592 311.43920898 300.9543457 C298.50267716 300.99369108 285.56615476 301.035115 272.62963867 301.0793457 C271.43413511 301.08343211 271.43413511 301.08343211 270.21447997 301.08760107 C266.21627409 301.10128039 262.21806836 301.1150007 258.2198627 301.12874138 C225.03485952 301.24273566 191.84983679 301.34953848 158.66479492 301.45166016 C157.82337556 303.17956818 156.9951998 304.91392915 156.17260742 306.65087891 C155.70999512 307.61598389 155.24738281 308.58108887 154.77075195 309.57543945 C153.14092966 313.81405676 153.17988904 317.18774046 154.66479492 321.45166016 C156.07001345 324.2381786 157.19398713 325.29627463 159.66479492 327.45166016 C165.96368475 329.50317625 171.79447497 329.73467171 178.38113403 329.70321655 C179.43729255 329.70618669 180.49345106 329.70915683 181.58161438 329.71221697 C185.10825765 329.71983434 188.63473328 329.71337224 192.16137695 329.70703125 C194.6946626 329.70978212 197.22794739 329.71346261 199.76123047 329.71800232 C205.21009776 329.72610599 210.65892013 329.728448 216.1077919 329.72605515 C223.99238821 329.72295222 231.876913 329.73461431 239.76149128 329.75060494 C252.56372542 329.77654032 265.36595961 329.79657399 278.16821289 329.81005859 C278.93369363 329.81086896 279.69917436 329.81167933 280.48785149 329.81251426 C291.35878203 329.82374362 302.22970746 329.8290191 313.10064302 329.83190139 C313.86673014 329.83210537 314.63281726 329.83230936 315.42211914 329.83251953 C316.18726979 329.83271947 316.95242044 329.8329194 317.74075748 329.8331254 C330.49891866 329.83685795 343.257002 329.8559377 356.0151242 329.88761389 C363.88039311 329.90652557 371.74546241 329.9124919 379.6107478 329.90179671 C385.63422429 329.89473277 391.65747248 329.90824664 397.68092346 329.92941475 C400.15206772 329.93474828 402.6232376 329.93322026 405.0943718 329.92437935 C408.46405898 329.91329443 411.83279436 329.92664864 415.2024231 329.94613647 C416.18335375 329.93701182 417.1642844 329.92788716 418.17494023 329.918486 C423.98668074 329.98402685 427.21544517 330.62498914 431.66479492 334.45166016 C435.7210989 339.67425873 435.43877036 345.10506158 434.66479492 351.45166016 C432.47497973 356.07460334 430.15894536 358.15438927 425.66479492 360.45166016 C423.08940125 360.85038757 423.08940125 360.85038757 420.32373047 360.8840332 C419.28302902 360.90382736 418.24232758 360.92362152 417.17008972 360.9440155 C416.05845963 360.95040543 414.94682953 360.95679535 413.80151367 360.96337891 C412.08083427 360.99030571 412.08083427 360.99030571 410.32539368 361.01777649 C406.66773129 361.07188415 403.01019945 361.10577766 399.35229492 361.13916016 C396.86985488 361.17233271 394.38743207 361.20682231 391.9050293 361.24267578 C385.82506824 361.32761106 379.74509029 361.39595922 373.66479492 361.45166016 C374.46868652 361.83547852 375.27257812 362.21929687 376.10083008 362.61474609 C389.18136035 368.98188365 398.17633219 376.77129925 403.29370117 390.65478516 C404.86042262 395.53508463 405.20405196 400.09874267 405.16479492 405.20166016 C405.15907471 406.07346924 405.15335449 406.94527832 405.14746094 407.84350586 C404.79673795 420.62895299 399.73748685 429.97730919 391.08276367 439.12353516 C380.55237451 449.06463247 368.60059134 451.02127853 354.80541992 450.79150391 C342.46774043 450.24692868 332.77330117 444.05193997 324.47729492 435.26416016 C314.74354089 423.30088704 313.33477293 410.26605894 314.66479492 395.45166016 C317.28229165 383.76095726 324.12456966 374.48953125 333.66479492 367.45166016 C337.62479492 365.47166016 341.58479492 363.49166016 345.66479492 361.45166016 C305.07479492 361.45166016 264.48479492 361.45166016 222.66479492 361.45166016 C226.62479492 363.43166016 230.58479492 365.41166016 234.66479492 367.45166016 C244.55402998 374.37167079 250.73528112 383.81293868 253.66479492 395.45166016 C254.09934806 398.71464399 254.1901001 401.9123072 254.16479492 405.20166016 C254.15907471 406.07346924 254.15335449 406.94527832 254.14746094 407.84350586 C253.79673795 420.62895299 248.73748685 429.97730919 240.08276367 439.12353516 C229.55237451 449.06463247 217.60059134 451.02127853 203.80541992 450.79150391 C191.46774043 450.24692868 181.77330117 444.05193997 173.47729492 435.26416016 C163.74354089 423.30088704 162.33477293 410.26605894 163.66479492 395.45166016 C166.21612283 384.05649157 173.03024827 374.07715171 182.66479492 367.45166016 C184.72690527 366.35971755 186.80786861 365.30288573 188.90307617 364.27587891 C189.98242432 363.74438232 191.06177246 363.21288574 192.17382812 362.6652832 C192.99584717 362.2647876 193.81786621 361.86429199 194.66479492 361.45166016 C193.60679687 361.44231445 192.54879883 361.43296875 191.45874023 361.42333984 C187.47737802 361.38301791 183.49675483 361.31714987 179.51586914 361.24414062 C177.8034017 361.21617279 176.09081097 361.19483988 174.37817383 361.18066406 C158.57877527 361.04215385 147.04800793 358.94123383 135.03979492 348.07666016 C125.27918998 337.28862312 121.26154593 326.79616461 121.38354492 312.21728516 C122.04410215 303.37315788 125.20917098 295.47741539 129.80932617 287.96337891 C131.84405665 281.98926156 129.08190507 274.76395204 127.37869263 268.8868103 C127.14466984 268.06149107 126.91064705 267.23617183 126.66953266 266.38584292 C125.88856873 263.63710705 125.09920258 260.89085862 124.30981445 258.14453125 C123.74573482 256.16576828 123.18217521 254.18685701 122.61909485 252.20780945 C121.08867144 246.83453551 119.55092345 241.4633825 118.01183176 236.09258604 C116.39123413 230.43275825 114.77728351 224.77103548 113.16256714 219.10952759 C110.44094192 209.57044493 107.71504172 200.03259289 104.98608398 190.49560547 C101.17634813 177.18157346 97.37396146 163.86545165 93.57325959 150.54883838 C88.15833229 131.57802927 82.73997369 112.60819785 77.3137207 93.640625 C77.02973805 92.64758134 76.74575539 91.65453767 76.4531672 90.63140178 C73.44016086 80.09749404 70.41387091 69.56769626 67.35272217 59.04766846 C67.09101837 58.1475013 66.82931456 57.24733414 66.55968034 56.31988919 C65.33195829 52.09787562 64.10145586 47.87671327 62.8655262 43.65709496 C62.43718797 42.1870823 62.0089339 40.71704512 61.58078003 39.24697876 C61.38450351 38.58096279 61.18822698 37.91494683 60.98600268 37.22874856 C59.66479492 32.67852703 59.66479492 32.67852703 59.66479492 30.45166016 C58.82620941 30.4605426 57.9876239 30.46942505 57.12362671 30.47857666 C49.20826694 30.55883227 41.29304445 30.61968017 33.37737083 30.65890884 C29.30812553 30.67975505 25.23921733 30.70801769 21.17016602 30.75341797 C17.24088874 30.79698275 13.31193506 30.82081958 9.38243484 30.83116913 C7.88573744 30.83854154 6.3890571 30.85293836 4.89249802 30.87458038 C2.7906589 30.90375773 0.69014486 30.90761048 -1.41186523 30.90576172 C-2.60655426 30.91464417 -3.80124329 30.92352661 -5.03213501 30.93267822 C-9.97283075 30.21317671 -13.14587676 27.9829518 -16.18286133 24.07275391 C-18.27089189 19.32336913 -17.95441465 14.52917864 -17.33520508 9.45166016 C-13.59337574 1.55224266 -8.2844775 0.00226476 0 0 Z " fill="#000000" transform="translate(17.335205078125,30.54833984375)"/>
</svg>
